<svg width="1680" height="1376" viewBox="0 0 1680 1376" fill="none" xmlns="http://www.w3.org/2000/svg">
<path d="M0 725.93L40.1333 716.083C80.2667 706.007 160.533 686.313 240.427 661.352C320.507 636.62 400.027 606.85 480.107 547.997C560 489.373 640.267 401.437 720.16 415.635C800.24 429.833 879.76 545.707 959.84 566.088C1039.73 586.24 1120 510.67 1199.89 498.075C1279.97 485.48 1359.49 535.86 1439.57 514.105C1519.47 492.35 1599.73 398.46 1639.87 351.515L1680 304.57V1376.29H1639.87C1599.73 1376.29 1519.47 1376.29 1439.57 1376.29C1359.49 1376.29 1279.97 1376.29 1199.89 1376.29C1120 1376.29 1039.73 1376.29 959.84 1376.29C879.76 1376.29 800.24 1376.29 720.16 1376.29C640.267 1376.29 560 1376.29 480.107 1376.29C400.027 1376.29 320.507 1376.29 240.427 1376.29C160.533 1376.29 80.2667 1376.29 40.1333 1376.29H0V725.93Z" fill="#0B2239"/>
<path d="M0 476.32L40.1333 532.425C80.2667 588.53 160.533 700.74 240.427 730.51C320.507 760.28 400.027 707.61 480.107 659.52C560 611.43 640.267 567.92 720.16 588.53C800.24 609.14 879.76 693.87 959.84 714.938C1039.73 735.777 1120 693.183 1199.89 677.153C1279.97 661.123 1359.49 671.657 1439.57 650.36C1519.47 629.063 1599.73 575.477 1639.87 548.913L1680 522.12V1376.29H1639.87C1599.73 1376.29 1519.47 1376.29 1439.57 1376.29C1359.49 1376.29 1279.97 1376.29 1199.89 1376.29C1120 1376.29 1039.73 1376.29 959.84 1376.29C879.76 1376.29 800.24 1376.29 720.16 1376.29C640.267 1376.29 560 1376.29 480.107 1376.29C400.027 1376.29 320.507 1376.29 240.427 1376.29C160.533 1376.29 80.2667 1376.29 40.1333 1376.29H0V476.32Z" fill="#002854"/>
<path d="M0 794.63L40.1333 825.545C80.2667 856.46 160.533 918.29 240.427 926.763C320.507 935.007 400.027 890.123 480.107 859.437C560 828.98 640.267 812.95 720.16 827.148C800.24 841.117 879.76 885.543 959.84 914.397C1039.73 943.48 1120 957.22 1199.89 951.037C1279.97 945.083 1359.49 918.977 1439.57 874.093C1519.47 828.98 1599.73 764.86 1639.87 732.8L1680 700.74V1376.29H1639.87C1599.73 1376.29 1519.47 1376.29 1439.57 1376.29C1359.49 1376.29 1279.97 1376.29 1199.89 1376.29C1120 1376.29 1039.73 1376.29 959.84 1376.29C879.76 1376.29 800.24 1376.29 720.16 1376.29C640.267 1376.29 560 1376.29 480.107 1376.29C400.027 1376.29 320.507 1376.29 240.427 1376.29C160.533 1376.29 80.2667 1376.29 40.1333 1376.29H0V794.63Z" fill="#003D8A"/>
<path d="M0 929.74L40.1333 938.442C80.2667 947.373 160.533 964.777 240.427 990.883C320.507 1016.76 400.027 1051.11 480.107 1046.53C560 1041.95 640.267 998.44 720.16 969.815C800.24 941.19 879.76 927.45 959.84 937.068C1039.73 946.457 1120 979.433 1199.89 989.28C1279.97 999.127 1359.49 986.303 1439.57 982.41C1519.47 978.517 1599.73 984.013 1639.87 986.532L1680 989.28V1376.29H1639.87C1599.73 1376.29 1519.47 1376.29 1439.57 1376.29C1359.49 1376.29 1279.97 1376.29 1199.89 1376.29C1120 1376.29 1039.73 1376.29 959.84 1376.29C879.76 1376.29 800.24 1376.29 720.16 1376.29C640.267 1376.29 560 1376.29 480.107 1376.29C400.027 1376.29 320.507 1376.29 240.427 1376.29C160.533 1376.29 80.2667 1376.29 40.1333 1376.29H0V929.74Z" fill="#374FBF"/>
<path d="M0 1151.87L40.1333 1162.63C80.2667 1173.17 160.533 1194.69 240.427 1197.21C320.507 1199.96 400.027 1183.93 480.107 1158.74C560 1133.55 640.267 1099.2 720.16 1116.83C800.24 1134.24 879.76 1203.85 959.84 1220.11C1039.73 1236.6 1120 1199.96 1199.89 1198.82C1279.97 1197.67 1359.49 1232.02 1439.57 1215.53C1519.47 1199.27 1599.73 1131.95 1639.87 1098.51L1680 1064.85V1376.29H1639.87C1599.73 1376.29 1519.47 1376.29 1439.57 1376.29C1359.49 1376.29 1279.97 1376.29 1199.89 1376.29C1120 1376.29 1039.73 1376.29 959.84 1376.29C879.76 1376.29 800.24 1376.29 720.16 1376.29C640.267 1376.29 560 1376.29 480.107 1376.29C400.027 1376.29 320.507 1376.29 240.427 1376.29C160.533 1376.29 80.2667 1376.29 40.1333 1376.29H0V1151.87Z" fill="#715DF2"/>
</svg>
