<svg width="837" height="821" viewBox="0 0 837 821" fill="none" xmlns="http://www.w3.org/2000/svg">
<g filter="url(#filter0_d)">
<g clip-path="url(#clip0)">
<path d="M829 11H454V813H829V11Z" fill="#001220"/>
<path d="M454 516.26L462.958 522.275C471.917 528.29 489.833 540.32 507.667 533.904C525.542 527.354 543.292 502.492 561.167 500.621C579 498.883 596.917 520.27 614.75 538.048C632.625 555.959 650.375 570.128 668.25 576.41C686.083 582.692 704 580.821 721.833 577.078C739.708 573.336 757.458 567.454 775.333 563.311C793.167 559.033 811.083 556.36 820.042 555.023L829 553.687V814.337H820.042C811.083 814.337 793.167 814.337 775.333 814.337C757.458 814.337 739.708 814.337 721.833 814.337C704 814.337 686.083 814.337 668.25 814.337C650.375 814.337 632.625 814.337 614.75 814.337C596.917 814.337 579 814.337 561.167 814.337C543.292 814.337 525.542 814.337 507.667 814.337C489.833 814.337 471.917 814.337 462.958 814.337H454V516.26Z" fill="#001122"/>
<path d="M454 628.54L462.958 630.144C471.917 631.614 489.833 634.822 507.667 622.792C525.542 610.762 543.292 583.494 561.167 583.494C579 583.494 596.917 610.762 614.75 613.837C632.625 616.911 650.375 596.059 668.25 584.163C686.083 572.4 704 569.727 721.833 568.791C739.708 567.989 757.458 568.791 775.333 569.326C793.167 569.727 811.083 569.727 820.042 569.727H829V814.337H820.042C811.083 814.337 793.167 814.337 775.333 814.337C757.458 814.337 739.708 814.337 721.833 814.337C704 814.337 686.083 814.337 668.25 814.337C650.375 814.337 632.625 814.337 614.75 814.337C596.917 814.337 579 814.337 561.167 814.337C543.292 814.337 525.542 814.337 507.667 814.337C489.833 814.337 471.917 814.337 462.958 814.337H454V628.54Z" fill="#002854"/>
<path d="M454 679.333L462.958 671.313C471.917 663.293 489.833 647.253 507.667 648.991C525.542 650.862 543.292 670.378 561.167 674.922C579 679.333 596.917 668.64 614.75 663.561C632.625 658.348 650.375 658.882 668.25 664.229C686.083 669.576 704 679.734 721.833 672.65C739.708 665.566 757.458 640.971 775.333 635.624C793.167 630.278 811.083 644.179 820.042 650.996L829 657.947V814.337H820.042C811.083 814.337 793.167 814.337 775.333 814.337C757.458 814.337 739.708 814.337 721.833 814.337C704 814.337 686.083 814.337 668.25 814.337C650.375 814.337 632.625 814.337 614.75 814.337C596.917 814.337 579 814.337 561.167 814.337C543.292 814.337 525.542 814.337 507.667 814.337C489.833 814.337 471.917 814.337 462.958 814.337H454V679.333Z" fill="#003D8A"/>
<path d="M454 712.75L462.958 704.997C471.917 697.111 489.833 681.606 507.667 674.922C525.542 668.239 543.292 670.378 561.167 669.308C579 668.239 596.917 663.694 614.75 669.041C632.625 674.387 650.375 689.625 668.25 695.774C686.083 702.056 704 699.383 721.833 692.7C739.708 686.017 757.458 675.323 775.333 680.937C793.167 686.418 811.083 708.339 820.042 719.166L829 730.127V814.336H820.042C811.083 814.336 793.167 814.336 775.333 814.336C757.458 814.336 739.708 814.336 721.833 814.336C704 814.336 686.083 814.336 668.25 814.336C650.375 814.336 632.625 814.336 614.75 814.336C596.917 814.336 579 814.336 561.167 814.336C543.292 814.336 525.542 814.336 507.667 814.336C489.833 814.336 471.917 814.336 462.958 814.336H454V712.75Z" fill="#374FBF"/>
<path d="M454 759.533L462.958 759.934C471.917 760.469 489.833 761.271 507.667 763.276C525.542 765.281 543.292 768.489 561.167 769.826C579 771.162 596.917 770.628 614.75 764.479C632.625 758.197 650.375 746.167 668.25 736.543C686.083 727.052 704 719.834 721.833 722.775C739.708 725.716 757.458 738.548 775.333 741.889C793.167 745.231 811.083 739.082 820.042 735.874L829 732.8V814.337H820.042C811.083 814.337 793.167 814.337 775.333 814.337C757.458 814.337 739.708 814.337 721.833 814.337C704 814.337 686.083 814.337 668.25 814.337C650.375 814.337 632.625 814.337 614.75 814.337C596.917 814.337 579 814.337 561.167 814.337C543.292 814.337 525.542 814.337 507.667 814.337C489.833 814.337 471.917 814.337 462.958 814.337H454V759.533Z" fill="#715DF2"/>
</g>
<rect x="454" width="375" height="812" rx="30" fill="url(#paint0_linear)"/>
<path d="M512.75 74.9168H482.362L493.39 63.8897L490.444 60.9438L474.387 77.0001L490.444 93.0563L493.39 90.1105L482.362 79.0834H512.75V74.9168Z" fill="white"/>
<rect x="527" y="18" width="96" height="21" rx="5" fill="#7939FF"/>
<rect x="641" y="31" width="96" height="8" rx="4" fill="#7939FF"/>
<path d="M532.094 80.6328H539.84V83H529.129V65.9375H532.094V80.6328ZM541.305 76.543C541.305 75.3008 541.551 74.1836 542.043 73.1914C542.535 72.1914 543.227 71.4258 544.117 70.8945C545.008 70.3555 546.031 70.0859 547.188 70.0859C548.898 70.0859 550.285 70.6367 551.348 71.7383C552.418 72.8398 552.996 74.3008 553.082 76.1211L553.094 76.7891C553.094 78.0391 552.852 79.1562 552.367 80.1406C551.891 81.125 551.203 81.8867 550.305 82.4258C549.414 82.9648 548.383 83.2344 547.211 83.2344C545.422 83.2344 543.988 82.6406 542.91 81.4531C541.84 80.2578 541.305 78.668 541.305 76.6836V76.543ZM544.152 76.7891C544.152 78.0938 544.422 79.1172 544.961 79.8594C545.5 80.5938 546.25 80.9609 547.211 80.9609C548.172 80.9609 548.918 80.5859 549.449 79.8359C549.988 79.0859 550.258 77.9883 550.258 76.543C550.258 75.2617 549.98 74.2461 549.426 73.4961C548.879 72.7461 548.133 72.3711 547.188 72.3711C546.258 72.3711 545.52 72.7422 544.973 73.4844C544.426 74.2188 544.152 75.3203 544.152 76.7891ZM555.004 76.5664C555.004 74.5977 555.465 73.0273 556.387 71.8555C557.316 70.6758 558.547 70.0859 560.078 70.0859C561.523 70.0859 562.66 70.5898 563.488 71.5977L563.617 70.3203H566.184V82.6133C566.184 84.2773 565.664 85.5898 564.625 86.5508C563.594 87.5117 562.199 87.9922 560.441 87.9922C559.512 87.9922 558.602 87.7969 557.711 87.4062C556.828 87.0234 556.156 86.5195 555.695 85.8945L557.043 84.1836C557.918 85.2227 558.996 85.7422 560.277 85.7422C561.223 85.7422 561.969 85.4844 562.516 84.9688C563.062 84.4609 563.336 83.7109 563.336 82.7188V81.8633C562.516 82.7773 561.422 83.2344 560.055 83.2344C558.57 83.2344 557.355 82.6445 556.41 81.4648C555.473 80.2852 555.004 78.6523 555.004 76.5664ZM557.84 76.8125C557.84 78.0859 558.098 79.0898 558.613 79.8242C559.137 80.5508 559.859 80.9141 560.781 80.9141C561.93 80.9141 562.781 80.4219 563.336 79.4375V73.8594C562.797 72.8984 561.953 72.418 560.805 72.418C559.867 72.418 559.137 72.7891 558.613 73.5312C558.098 74.2734 557.84 75.3672 557.84 76.8125ZM578.125 83H575.277V70.3203H578.125V83ZM575.102 67.0273C575.102 66.5898 575.238 66.2266 575.512 65.9375C575.793 65.6484 576.191 65.5039 576.707 65.5039C577.223 65.5039 577.621 65.6484 577.902 65.9375C578.184 66.2266 578.324 66.5898 578.324 67.0273C578.324 67.457 578.184 67.8164 577.902 68.1055C577.621 68.3867 577.223 68.5273 576.707 68.5273C576.191 68.5273 575.793 68.3867 575.512 68.1055C575.238 67.8164 575.102 67.457 575.102 67.0273ZM583.879 70.3203L583.961 71.7852C584.898 70.6523 586.129 70.0859 587.652 70.0859C590.293 70.0859 591.637 71.5977 591.684 74.6211V83H588.836V74.7852C588.836 73.9805 588.66 73.3867 588.309 73.0039C587.965 72.6133 587.398 72.418 586.609 72.418C585.461 72.418 584.605 72.9375 584.043 73.9766V83H581.195V70.3203H583.879ZM601.574 83V72.4297H599.641V70.3203H601.574V69.1602C601.574 67.7539 601.965 66.668 602.746 65.9023C603.527 65.1367 604.621 64.7539 606.027 64.7539C606.527 64.7539 607.059 64.8242 607.621 64.9648L607.551 67.1914C607.238 67.1289 606.875 67.0977 606.461 67.0977C605.102 67.0977 604.422 67.7969 604.422 69.1953V70.3203H607V72.4297H604.422V83H601.574ZM608.547 76.543C608.547 75.3008 608.793 74.1836 609.285 73.1914C609.777 72.1914 610.469 71.4258 611.359 70.8945C612.25 70.3555 613.273 70.0859 614.43 70.0859C616.141 70.0859 617.527 70.6367 618.59 71.7383C619.66 72.8398 620.238 74.3008 620.324 76.1211L620.336 76.7891C620.336 78.0391 620.094 79.1562 619.609 80.1406C619.133 81.125 618.445 81.8867 617.547 82.4258C616.656 82.9648 615.625 83.2344 614.453 83.2344C612.664 83.2344 611.23 82.6406 610.152 81.4531C609.082 80.2578 608.547 78.668 608.547 76.6836V76.543ZM611.395 76.7891C611.395 78.0938 611.664 79.1172 612.203 79.8594C612.742 80.5938 613.492 80.9609 614.453 80.9609C615.414 80.9609 616.16 80.5859 616.691 79.8359C617.23 79.0859 617.5 77.9883 617.5 76.543C617.5 75.2617 617.223 74.2461 616.668 73.4961C616.121 72.7461 615.375 72.3711 614.43 72.3711C613.5 72.3711 612.762 72.7422 612.215 73.4844C611.668 74.2188 611.395 75.3203 611.395 76.7891ZM629.383 72.9219C629.008 72.8594 628.621 72.8281 628.223 72.8281C626.918 72.8281 626.039 73.3281 625.586 74.3281V83H622.738V70.3203H625.457L625.527 71.7383C626.215 70.6367 627.168 70.0859 628.387 70.0859C628.793 70.0859 629.129 70.1406 629.395 70.25L629.383 72.9219ZM633.859 70.3203L633.941 71.6445C634.832 70.6055 636.051 70.0859 637.598 70.0859C639.293 70.0859 640.453 70.7344 641.078 72.0312C642 70.7344 643.297 70.0859 644.969 70.0859C646.367 70.0859 647.406 70.4727 648.086 71.2461C648.773 72.0195 649.125 73.1602 649.141 74.668V83H646.293V74.75C646.293 73.9453 646.117 73.3555 645.766 72.9805C645.414 72.6055 644.832 72.418 644.02 72.418C643.371 72.418 642.84 72.5938 642.426 72.9453C642.02 73.2891 641.734 73.7422 641.57 74.3047L641.582 83H638.734V74.6562C638.695 73.1641 637.934 72.418 636.449 72.418C635.309 72.418 634.5 72.8828 634.023 73.8125V83H631.176V70.3203H633.859Z" fill="white"/>
<rect x="469" y="309" width="310" height="26" rx="13" fill="white" fill-opacity="0.67"/>
<path d="M474.078 296.66V303H471.113V285.938H477.641C479.547 285.938 481.059 286.434 482.176 287.426C483.301 288.418 483.863 289.73 483.863 291.363C483.863 293.035 483.312 294.336 482.211 295.266C481.117 296.195 479.582 296.66 477.605 296.66H474.078ZM474.078 294.281H477.641C478.695 294.281 479.5 294.035 480.055 293.543C480.609 293.043 480.887 292.324 480.887 291.387C480.887 290.465 480.605 289.73 480.043 289.184C479.48 288.629 478.707 288.344 477.723 288.328H474.078V294.281ZM493.625 303C493.5 302.758 493.391 302.363 493.297 301.816C492.391 302.762 491.281 303.234 489.969 303.234C488.695 303.234 487.656 302.871 486.852 302.145C486.047 301.418 485.645 300.52 485.645 299.449C485.645 298.098 486.145 297.062 487.145 296.344C488.152 295.617 489.59 295.254 491.457 295.254H493.203V294.422C493.203 293.766 493.02 293.242 492.652 292.852C492.285 292.453 491.727 292.254 490.977 292.254C490.328 292.254 489.797 292.418 489.383 292.746C488.969 293.066 488.762 293.477 488.762 293.977H485.914C485.914 293.281 486.145 292.633 486.605 292.031C487.066 291.422 487.691 290.945 488.48 290.602C489.277 290.258 490.164 290.086 491.141 290.086C492.625 290.086 493.809 290.461 494.691 291.211C495.574 291.953 496.027 293 496.051 294.352V300.07C496.051 301.211 496.211 302.121 496.531 302.801V303H493.625ZM490.496 300.949C491.059 300.949 491.586 300.812 492.078 300.539C492.578 300.266 492.953 299.898 493.203 299.438V297.047H491.668C490.613 297.047 489.82 297.23 489.289 297.598C488.758 297.965 488.492 298.484 488.492 299.156C488.492 299.703 488.672 300.141 489.031 300.469C489.398 300.789 489.887 300.949 490.496 300.949ZM506.141 299.555C506.141 299.047 505.93 298.66 505.508 298.395C505.094 298.129 504.402 297.895 503.434 297.691C502.465 297.488 501.656 297.23 501.008 296.918C499.586 296.23 498.875 295.234 498.875 293.93C498.875 292.836 499.336 291.922 500.258 291.188C501.18 290.453 502.352 290.086 503.773 290.086C505.289 290.086 506.512 290.461 507.441 291.211C508.379 291.961 508.848 292.934 508.848 294.129H506C506 293.582 505.797 293.129 505.391 292.77C504.984 292.402 504.445 292.219 503.773 292.219C503.148 292.219 502.637 292.363 502.238 292.652C501.848 292.941 501.652 293.328 501.652 293.812C501.652 294.25 501.836 294.59 502.203 294.832C502.57 295.074 503.312 295.32 504.43 295.57C505.547 295.812 506.422 296.105 507.055 296.449C507.695 296.785 508.168 297.191 508.473 297.668C508.785 298.145 508.941 298.723 508.941 299.402C508.941 300.543 508.469 301.469 507.523 302.18C506.578 302.883 505.34 303.234 503.809 303.234C502.77 303.234 501.844 303.047 501.031 302.672C500.219 302.297 499.586 301.781 499.133 301.125C498.68 300.469 498.453 299.762 498.453 299.004H501.219C501.258 299.676 501.512 300.195 501.98 300.562C502.449 300.922 503.07 301.102 503.844 301.102C504.594 301.102 505.164 300.961 505.555 300.68C505.945 300.391 506.141 300.016 506.141 299.555ZM518.539 299.555C518.539 299.047 518.328 298.66 517.906 298.395C517.492 298.129 516.801 297.895 515.832 297.691C514.863 297.488 514.055 297.23 513.406 296.918C511.984 296.23 511.273 295.234 511.273 293.93C511.273 292.836 511.734 291.922 512.656 291.188C513.578 290.453 514.75 290.086 516.172 290.086C517.688 290.086 518.91 290.461 519.84 291.211C520.777 291.961 521.246 292.934 521.246 294.129H518.398C518.398 293.582 518.195 293.129 517.789 292.77C517.383 292.402 516.844 292.219 516.172 292.219C515.547 292.219 515.035 292.363 514.637 292.652C514.246 292.941 514.051 293.328 514.051 293.812C514.051 294.25 514.234 294.59 514.602 294.832C514.969 295.074 515.711 295.32 516.828 295.57C517.945 295.812 518.82 296.105 519.453 296.449C520.094 296.785 520.566 297.191 520.871 297.668C521.184 298.145 521.34 298.723 521.34 299.402C521.34 300.543 520.867 301.469 519.922 302.18C518.977 302.883 517.738 303.234 516.207 303.234C515.168 303.234 514.242 303.047 513.43 302.672C512.617 302.297 511.984 301.781 511.531 301.125C511.078 300.469 510.852 299.762 510.852 299.004H513.617C513.656 299.676 513.91 300.195 514.379 300.562C514.848 300.922 515.469 301.102 516.242 301.102C516.992 301.102 517.562 300.961 517.953 300.68C518.344 300.391 518.539 300.016 518.539 299.555ZM534.969 299.074L536.984 290.32H539.762L536.305 303H533.961L531.242 294.293L528.57 303H526.227L522.758 290.32H525.535L527.586 298.98L530.188 290.32H532.332L534.969 299.074ZM541.133 296.543C541.133 295.301 541.379 294.184 541.871 293.191C542.363 292.191 543.055 291.426 543.945 290.895C544.836 290.355 545.859 290.086 547.016 290.086C548.727 290.086 550.113 290.637 551.176 291.738C552.246 292.84 552.824 294.301 552.91 296.121L552.922 296.789C552.922 298.039 552.68 299.156 552.195 300.141C551.719 301.125 551.031 301.887 550.133 302.426C549.242 302.965 548.211 303.234 547.039 303.234C545.25 303.234 543.816 302.641 542.738 301.453C541.668 300.258 541.133 298.668 541.133 296.684V296.543ZM543.98 296.789C543.98 298.094 544.25 299.117 544.789 299.859C545.328 300.594 546.078 300.961 547.039 300.961C548 300.961 548.746 300.586 549.277 299.836C549.816 299.086 550.086 297.988 550.086 296.543C550.086 295.262 549.809 294.246 549.254 293.496C548.707 292.746 547.961 292.371 547.016 292.371C546.086 292.371 545.348 292.742 544.801 293.484C544.254 294.219 543.98 295.32 543.98 296.789ZM561.969 292.922C561.594 292.859 561.207 292.828 560.809 292.828C559.504 292.828 558.625 293.328 558.172 294.328V303H555.324V290.32H558.043L558.113 291.738C558.801 290.637 559.754 290.086 560.973 290.086C561.379 290.086 561.715 290.141 561.98 290.25L561.969 292.922ZM563 296.566C563 294.613 563.453 293.047 564.359 291.867C565.266 290.68 566.48 290.086 568.004 290.086C569.348 290.086 570.434 290.555 571.262 291.492V285H574.109V303H571.531L571.391 301.688C570.539 302.719 569.402 303.234 567.98 303.234C566.496 303.234 565.293 302.637 564.371 301.441C563.457 300.246 563 298.621 563 296.566ZM565.848 296.812C565.848 298.102 566.094 299.109 566.586 299.836C567.086 300.555 567.793 300.914 568.707 300.914C569.871 300.914 570.723 300.395 571.262 299.355V293.941C570.738 292.926 569.895 292.418 568.73 292.418C567.809 292.418 567.098 292.785 566.598 293.52C566.098 294.246 565.848 295.344 565.848 296.812Z" fill="white"/>
<rect x="469" y="465" width="310" height="26" rx="13" fill="white" fill-opacity="0.67"/>
<path d="M483.992 452.445C483.82 454.266 483.148 455.688 481.977 456.711C480.805 457.727 479.246 458.234 477.301 458.234C475.941 458.234 474.742 457.914 473.703 457.273C472.672 456.625 471.875 455.707 471.312 454.52C470.75 453.332 470.457 451.953 470.434 450.383V448.789C470.434 447.18 470.719 445.762 471.289 444.535C471.859 443.309 472.676 442.363 473.738 441.699C474.809 441.035 476.043 440.703 477.441 440.703C479.324 440.703 480.84 441.215 481.988 442.238C483.137 443.262 483.805 444.707 483.992 446.574H481.039C480.898 445.348 480.539 444.465 479.961 443.926C479.391 443.379 478.551 443.105 477.441 443.105C476.152 443.105 475.16 443.578 474.465 444.523C473.777 445.461 473.426 446.84 473.41 448.66V450.172C473.41 452.016 473.738 453.422 474.395 454.391C475.059 455.359 476.027 455.844 477.301 455.844C478.465 455.844 479.34 455.582 479.926 455.059C480.512 454.535 480.883 453.664 481.039 452.445H483.992ZM485.844 451.543C485.844 450.301 486.09 449.184 486.582 448.191C487.074 447.191 487.766 446.426 488.656 445.895C489.547 445.355 490.57 445.086 491.727 445.086C493.438 445.086 494.824 445.637 495.887 446.738C496.957 447.84 497.535 449.301 497.621 451.121L497.633 451.789C497.633 453.039 497.391 454.156 496.906 455.141C496.43 456.125 495.742 456.887 494.844 457.426C493.953 457.965 492.922 458.234 491.75 458.234C489.961 458.234 488.527 457.641 487.449 456.453C486.379 455.258 485.844 453.668 485.844 451.684V451.543ZM488.691 451.789C488.691 453.094 488.961 454.117 489.5 454.859C490.039 455.594 490.789 455.961 491.75 455.961C492.711 455.961 493.457 455.586 493.988 454.836C494.527 454.086 494.797 452.988 494.797 451.543C494.797 450.262 494.52 449.246 493.965 448.496C493.418 447.746 492.672 447.371 491.727 447.371C490.797 447.371 490.059 447.742 489.512 448.484C488.965 449.219 488.691 450.32 488.691 451.789ZM502.684 445.32L502.766 446.785C503.703 445.652 504.934 445.086 506.457 445.086C509.098 445.086 510.441 446.598 510.488 449.621V458H507.641V449.785C507.641 448.98 507.465 448.387 507.113 448.004C506.77 447.613 506.203 447.418 505.414 447.418C504.266 447.418 503.41 447.938 502.848 448.977V458H500V445.32H502.684ZM514.156 458V447.43H512.223V445.32H514.156V444.453C514.164 443.461 514.375 442.609 514.789 441.898C515.203 441.188 515.789 440.652 516.547 440.293C517.305 439.934 518.215 439.754 519.277 439.754C519.902 439.754 520.5 439.82 521.07 439.953C521.648 440.086 522.246 440.254 522.863 440.457L522.43 442.812C521.352 442.438 520.367 442.25 519.477 442.25C518.609 442.25 517.98 442.441 517.59 442.824C517.199 443.199 517.004 443.766 517.004 444.523V445.32H519.5V447.43H517.004V458H514.156ZM524.211 458H521.363V445.32H524.211V458ZM534.008 447.922C533.633 447.859 533.246 447.828 532.848 447.828C531.543 447.828 530.664 448.328 530.211 449.328V458H527.363V445.32H530.082L530.152 446.738C530.84 445.637 531.793 445.086 533.012 445.086C533.418 445.086 533.754 445.141 534.02 445.25L534.008 447.922ZM538.484 445.32L538.566 446.645C539.457 445.605 540.676 445.086 542.223 445.086C543.918 445.086 545.078 445.734 545.703 447.031C546.625 445.734 547.922 445.086 549.594 445.086C550.992 445.086 552.031 445.473 552.711 446.246C553.398 447.02 553.75 448.16 553.766 449.668V458H550.918V449.75C550.918 448.945 550.742 448.355 550.391 447.98C550.039 447.605 549.457 447.418 548.645 447.418C547.996 447.418 547.465 447.594 547.051 447.945C546.645 448.289 546.359 448.742 546.195 449.305L546.207 458H543.359V449.656C543.32 448.164 542.559 447.418 541.074 447.418C539.934 447.418 539.125 447.883 538.648 448.812V458H535.801V445.32H538.484ZM573.77 451.789C573.77 453.75 573.324 455.316 572.434 456.488C571.543 457.652 570.348 458.234 568.848 458.234C567.457 458.234 566.344 457.777 565.508 456.863V462.875H562.66V445.32H565.285L565.402 446.609C566.238 445.594 567.375 445.086 568.812 445.086C570.359 445.086 571.57 445.664 572.445 446.82C573.328 447.969 573.77 449.566 573.77 451.613V451.789ZM570.934 451.543C570.934 450.277 570.68 449.273 570.172 448.531C569.672 447.789 568.953 447.418 568.016 447.418C566.852 447.418 566.016 447.898 565.508 448.859V454.484C566.023 455.469 566.867 455.961 568.039 455.961C568.945 455.961 569.652 455.598 570.16 454.871C570.676 454.137 570.934 453.027 570.934 451.543ZM583.766 458C583.641 457.758 583.531 457.363 583.438 456.816C582.531 457.762 581.422 458.234 580.109 458.234C578.836 458.234 577.797 457.871 576.992 457.145C576.188 456.418 575.785 455.52 575.785 454.449C575.785 453.098 576.285 452.062 577.285 451.344C578.293 450.617 579.73 450.254 581.598 450.254H583.344V449.422C583.344 448.766 583.16 448.242 582.793 447.852C582.426 447.453 581.867 447.254 581.117 447.254C580.469 447.254 579.938 447.418 579.523 447.746C579.109 448.066 578.902 448.477 578.902 448.977H576.055C576.055 448.281 576.285 447.633 576.746 447.031C577.207 446.422 577.832 445.945 578.621 445.602C579.418 445.258 580.305 445.086 581.281 445.086C582.766 445.086 583.949 445.461 584.832 446.211C585.715 446.953 586.168 448 586.191 449.352V455.07C586.191 456.211 586.352 457.121 586.672 457.801V458H583.766ZM580.637 455.949C581.199 455.949 581.727 455.812 582.219 455.539C582.719 455.266 583.094 454.898 583.344 454.438V452.047H581.809C580.754 452.047 579.961 452.23 579.43 452.598C578.898 452.965 578.633 453.484 578.633 454.156C578.633 454.703 578.812 455.141 579.172 455.469C579.539 455.789 580.027 455.949 580.637 455.949ZM596.281 454.555C596.281 454.047 596.07 453.66 595.648 453.395C595.234 453.129 594.543 452.895 593.574 452.691C592.605 452.488 591.797 452.23 591.148 451.918C589.727 451.23 589.016 450.234 589.016 448.93C589.016 447.836 589.477 446.922 590.398 446.188C591.32 445.453 592.492 445.086 593.914 445.086C595.43 445.086 596.652 445.461 597.582 446.211C598.52 446.961 598.988 447.934 598.988 449.129H596.141C596.141 448.582 595.938 448.129 595.531 447.77C595.125 447.402 594.586 447.219 593.914 447.219C593.289 447.219 592.777 447.363 592.379 447.652C591.988 447.941 591.793 448.328 591.793 448.812C591.793 449.25 591.977 449.59 592.344 449.832C592.711 450.074 593.453 450.32 594.57 450.57C595.688 450.812 596.562 451.105 597.195 451.449C597.836 451.785 598.309 452.191 598.613 452.668C598.926 453.145 599.082 453.723 599.082 454.402C599.082 455.543 598.609 456.469 597.664 457.18C596.719 457.883 595.48 458.234 593.949 458.234C592.91 458.234 591.984 458.047 591.172 457.672C590.359 457.297 589.727 456.781 589.273 456.125C588.82 455.469 588.594 454.762 588.594 454.004H591.359C591.398 454.676 591.652 455.195 592.121 455.562C592.59 455.922 593.211 456.102 593.984 456.102C594.734 456.102 595.305 455.961 595.695 455.68C596.086 455.391 596.281 455.016 596.281 454.555ZM608.68 454.555C608.68 454.047 608.469 453.66 608.047 453.395C607.633 453.129 606.941 452.895 605.973 452.691C605.004 452.488 604.195 452.23 603.547 451.918C602.125 451.23 601.414 450.234 601.414 448.93C601.414 447.836 601.875 446.922 602.797 446.188C603.719 445.453 604.891 445.086 606.312 445.086C607.828 445.086 609.051 445.461 609.98 446.211C610.918 446.961 611.387 447.934 611.387 449.129H608.539C608.539 448.582 608.336 448.129 607.93 447.77C607.523 447.402 606.984 447.219 606.312 447.219C605.688 447.219 605.176 447.363 604.777 447.652C604.387 447.941 604.191 448.328 604.191 448.812C604.191 449.25 604.375 449.59 604.742 449.832C605.109 450.074 605.852 450.32 606.969 450.57C608.086 450.812 608.961 451.105 609.594 451.449C610.234 451.785 610.707 452.191 611.012 452.668C611.324 453.145 611.48 453.723 611.48 454.402C611.48 455.543 611.008 456.469 610.062 457.18C609.117 457.883 607.879 458.234 606.348 458.234C605.309 458.234 604.383 458.047 603.57 457.672C602.758 457.297 602.125 456.781 601.672 456.125C601.219 455.469 600.992 454.762 600.992 454.004H603.758C603.797 454.676 604.051 455.195 604.52 455.562C604.988 455.922 605.609 456.102 606.383 456.102C607.133 456.102 607.703 455.961 608.094 455.68C608.484 455.391 608.68 455.016 608.68 454.555ZM625.109 454.074L627.125 445.32H629.902L626.445 458H624.102L621.383 449.293L618.711 458H616.367L612.898 445.32H615.676L617.727 453.98L620.328 445.32H622.473L625.109 454.074ZM631.273 451.543C631.273 450.301 631.52 449.184 632.012 448.191C632.504 447.191 633.195 446.426 634.086 445.895C634.977 445.355 636 445.086 637.156 445.086C638.867 445.086 640.254 445.637 641.316 446.738C642.387 447.84 642.965 449.301 643.051 451.121L643.062 451.789C643.062 453.039 642.82 454.156 642.336 455.141C641.859 456.125 641.172 456.887 640.273 457.426C639.383 457.965 638.352 458.234 637.18 458.234C635.391 458.234 633.957 457.641 632.879 456.453C631.809 455.258 631.273 453.668 631.273 451.684V451.543ZM634.121 451.789C634.121 453.094 634.391 454.117 634.93 454.859C635.469 455.594 636.219 455.961 637.18 455.961C638.141 455.961 638.887 455.586 639.418 454.836C639.957 454.086 640.227 452.988 640.227 451.543C640.227 450.262 639.949 449.246 639.395 448.496C638.848 447.746 638.102 447.371 637.156 447.371C636.227 447.371 635.488 447.742 634.941 448.484C634.395 449.219 634.121 450.32 634.121 451.789ZM652.109 447.922C651.734 447.859 651.348 447.828 650.949 447.828C649.645 447.828 648.766 448.328 648.312 449.328V458H645.465V445.32H648.184L648.254 446.738C648.941 445.637 649.895 445.086 651.113 445.086C651.52 445.086 651.855 445.141 652.121 445.25L652.109 447.922ZM653.141 451.566C653.141 449.613 653.594 448.047 654.5 446.867C655.406 445.68 656.621 445.086 658.145 445.086C659.488 445.086 660.574 445.555 661.402 446.492V440H664.25V458H661.672L661.531 456.688C660.68 457.719 659.543 458.234 658.121 458.234C656.637 458.234 655.434 457.637 654.512 456.441C653.598 455.246 653.141 453.621 653.141 451.566ZM655.988 451.812C655.988 453.102 656.234 454.109 656.727 454.836C657.227 455.555 657.934 455.914 658.848 455.914C660.012 455.914 660.863 455.395 661.402 454.355V448.941C660.879 447.926 660.035 447.418 658.871 447.418C657.949 447.418 657.238 447.785 656.738 448.52C656.238 449.246 655.988 450.344 655.988 451.812Z" fill="white"/>
<rect x="546" y="618" width="171" height="48" rx="15" fill="#374658"/>
<path d="M602.828 647.633H610.574V650H599.863V632.938H602.828V647.633ZM612.039 643.543C612.039 642.301 612.285 641.184 612.777 640.191C613.27 639.191 613.961 638.426 614.852 637.895C615.742 637.355 616.766 637.086 617.922 637.086C619.633 637.086 621.02 637.637 622.082 638.738C623.152 639.84 623.73 641.301 623.816 643.121L623.828 643.789C623.828 645.039 623.586 646.156 623.102 647.141C622.625 648.125 621.938 648.887 621.039 649.426C620.148 649.965 619.117 650.234 617.945 650.234C616.156 650.234 614.723 649.641 613.645 648.453C612.574 647.258 612.039 645.668 612.039 643.684V643.543ZM614.887 643.789C614.887 645.094 615.156 646.117 615.695 646.859C616.234 647.594 616.984 647.961 617.945 647.961C618.906 647.961 619.652 647.586 620.184 646.836C620.723 646.086 620.992 644.988 620.992 643.543C620.992 642.262 620.715 641.246 620.16 640.496C619.613 639.746 618.867 639.371 617.922 639.371C616.992 639.371 616.254 639.742 615.707 640.484C615.16 641.219 614.887 642.32 614.887 643.789ZM625.738 643.566C625.738 641.598 626.199 640.027 627.121 638.855C628.051 637.676 629.281 637.086 630.812 637.086C632.258 637.086 633.395 637.59 634.223 638.598L634.352 637.32H636.918V649.613C636.918 651.277 636.398 652.59 635.359 653.551C634.328 654.512 632.934 654.992 631.176 654.992C630.246 654.992 629.336 654.797 628.445 654.406C627.562 654.023 626.891 653.52 626.43 652.895L627.777 651.184C628.652 652.223 629.73 652.742 631.012 652.742C631.957 652.742 632.703 652.484 633.25 651.969C633.797 651.461 634.07 650.711 634.07 649.719V648.863C633.25 649.777 632.156 650.234 630.789 650.234C629.305 650.234 628.09 649.645 627.145 648.465C626.207 647.285 625.738 645.652 625.738 643.566ZM628.574 643.812C628.574 645.086 628.832 646.09 629.348 646.824C629.871 647.551 630.594 647.914 631.516 647.914C632.664 647.914 633.516 647.422 634.07 646.438V640.859C633.531 639.898 632.688 639.418 631.539 639.418C630.602 639.418 629.871 639.789 629.348 640.531C628.832 641.273 628.574 642.367 628.574 643.812ZM648.859 650H646.012V637.32H648.859V650ZM645.836 634.027C645.836 633.59 645.973 633.227 646.246 632.938C646.527 632.648 646.926 632.504 647.441 632.504C647.957 632.504 648.355 632.648 648.637 632.938C648.918 633.227 649.059 633.59 649.059 634.027C649.059 634.457 648.918 634.816 648.637 635.105C648.355 635.387 647.957 635.527 647.441 635.527C646.926 635.527 646.527 635.387 646.246 635.105C645.973 634.816 645.836 634.457 645.836 634.027ZM654.613 637.32L654.695 638.785C655.633 637.652 656.863 637.086 658.387 637.086C661.027 637.086 662.371 638.598 662.418 641.621V650H659.57V641.785C659.57 640.98 659.395 640.387 659.043 640.004C658.699 639.613 658.133 639.418 657.344 639.418C656.195 639.418 655.34 639.938 654.777 640.977V650H651.93V637.32H654.613Z" fill="white"/>
</g>
<g filter="url(#filter1_d)">
<g clip-path="url(#clip1)">
<path d="M375 0H0V812H375V0Z" fill="#001220"/>
<path d="M0 511.56L8.95833 517.65C17.9167 523.74 35.8333 535.92 53.6667 529.424C71.5417 522.793 89.2917 497.621 107.167 495.726C125 493.967 142.917 515.62 160.75 533.619C178.625 551.754 196.375 566.099 214.25 572.46C232.083 578.821 250 576.926 267.833 573.137C285.708 569.347 303.458 563.393 321.333 559.198C339.167 554.867 357.083 552.16 366.042 550.807L375 549.453V813.354H366.042C357.083 813.354 339.167 813.354 321.333 813.354C303.458 813.354 285.708 813.354 267.833 813.354C250 813.354 232.083 813.354 214.25 813.354C196.375 813.354 178.625 813.354 160.75 813.354C142.917 813.354 125 813.354 107.167 813.354C89.2917 813.354 71.5417 813.354 53.6667 813.354C35.8333 813.354 17.9167 813.354 8.95833 813.354H0V511.56Z" fill="#001122"/>
<path d="M0 625.24L8.95833 626.864C17.9167 628.353 35.8333 631.601 53.6667 619.421C71.5417 607.241 89.2917 579.633 107.167 579.633C125 579.633 142.917 607.241 160.75 610.353C178.625 613.466 196.375 592.354 214.25 580.309C232.083 568.4 250 565.693 267.833 564.746C285.708 563.934 303.458 564.746 321.333 565.287C339.167 565.693 357.083 565.693 366.042 565.693H375V813.353H366.042C357.083 813.353 339.167 813.353 321.333 813.353C303.458 813.353 285.708 813.353 267.833 813.353C250 813.353 232.083 813.353 214.25 813.353C196.375 813.353 178.625 813.353 160.75 813.353C142.917 813.353 125 813.353 107.167 813.353C89.2917 813.353 71.5417 813.353 53.6667 813.353C35.8333 813.353 17.9167 813.353 8.95833 813.353H0V625.24Z" fill="#002854"/>
<path d="M0 676.667L8.95833 668.547C17.9167 660.427 35.8333 644.187 53.6667 645.946C71.5417 647.841 89.2917 667.599 107.167 672.201C125 676.667 142.917 665.84 160.75 660.697C178.625 655.419 196.375 655.961 214.25 661.374C232.083 666.787 250 677.073 267.833 669.9C285.708 662.727 303.458 637.826 321.333 632.413C339.167 626.999 357.083 641.074 366.042 647.976L375 655.013V813.353H366.042C357.083 813.353 339.167 813.353 321.333 813.353C303.458 813.353 285.708 813.353 267.833 813.353C250 813.353 232.083 813.353 214.25 813.353C196.375 813.353 178.625 813.353 160.75 813.353C142.917 813.353 125 813.353 107.167 813.353C89.2917 813.353 71.5417 813.353 53.6667 813.353C35.8333 813.353 17.9167 813.353 8.95833 813.353H0V676.667Z" fill="#003D8A"/>
<path d="M0 710.5L8.95833 702.651C17.9167 694.666 35.8333 678.967 53.6667 672.201C71.5417 665.434 89.2917 667.599 107.167 666.517C125 665.434 142.917 660.833 160.75 666.246C178.625 671.659 196.375 687.087 214.25 693.313C232.083 699.673 250 696.967 267.833 690.2C285.708 683.433 303.458 672.607 321.333 678.291C339.167 683.839 357.083 706.034 366.042 716.996L375 728.093V813.353H366.042C357.083 813.353 339.167 813.353 321.333 813.353C303.458 813.353 285.708 813.353 267.833 813.353C250 813.353 232.083 813.353 214.25 813.353C196.375 813.353 178.625 813.353 160.75 813.353C142.917 813.353 125 813.353 107.167 813.353C89.2917 813.353 71.5417 813.353 53.6667 813.353C35.8333 813.353 17.9167 813.353 8.95833 813.353H0V710.5Z" fill="#374FBF"/>
<path d="M0 757.867L8.95833 758.273C17.9167 758.814 35.8333 759.626 53.6667 761.656C71.5417 763.686 89.2917 766.934 107.167 768.287C125 769.641 142.917 769.099 160.75 762.874C178.625 756.513 196.375 744.333 214.25 734.589C232.083 724.981 250 717.673 267.833 720.65C285.708 723.627 303.458 736.619 321.333 740.003C339.167 743.386 357.083 737.161 366.042 733.913L375 730.8V813.353H366.042C357.083 813.353 339.167 813.353 321.333 813.353C303.458 813.353 285.708 813.353 267.833 813.353C250 813.353 232.083 813.353 214.25 813.353C196.375 813.353 178.625 813.353 160.75 813.353C142.917 813.353 125 813.353 107.167 813.353C89.2917 813.353 71.5417 813.353 53.6667 813.353C35.8333 813.353 17.9167 813.353 8.95833 813.353H0V757.867Z" fill="#715DF2"/>
</g>
<rect width="375" height="812" rx="30" fill="url(#paint1_linear)"/>
<path d="M58.75 74.9168H28.3625L39.3895 63.8897L36.4437 60.9438L20.3875 77.0001L36.4437 93.0563L39.3895 90.1105L28.3625 79.0834H58.75V74.9168Z" fill="white"/>
<rect x="20" y="20" width="96" height="21" rx="5" fill="#7939FF"/>
<rect x="250" y="31" width="96" height="8" rx="4" fill="#7939FF"/>
<rect x="137" y="31" width="96" height="8" rx="4" fill="#7939FF"/>
<path d="M78.6992 88.6055C78.6992 87.8555 78.4336 87.2773 77.9023 86.8711C77.3789 86.4648 76.4297 86.0547 75.0547 85.6406C73.6797 85.2266 72.5859 84.7656 71.7734 84.2578C70.2188 83.2812 69.4414 82.0078 69.4414 80.4375C69.4414 79.0625 70 77.9297 71.1172 77.0391C72.2422 76.1484 73.6992 75.7031 75.4883 75.7031C76.6758 75.7031 77.7344 75.9219 78.6641 76.3594C79.5938 76.7969 80.3242 77.4219 80.8555 78.2344C81.3867 79.0391 81.6523 79.9336 81.6523 80.918H78.6992C78.6992 80.0273 78.418 79.332 77.8555 78.832C77.3008 78.3242 76.5039 78.0703 75.4648 78.0703C74.4961 78.0703 73.7422 78.2773 73.2031 78.6914C72.6719 79.1055 72.4062 79.6836 72.4062 80.4258C72.4062 81.0508 72.6953 81.5742 73.2734 81.9961C73.8516 82.4102 74.8047 82.8164 76.1328 83.2148C77.4609 83.6055 78.5273 84.0547 79.332 84.5625C80.1367 85.0625 80.7266 85.6406 81.1016 86.2969C81.4766 86.9453 81.6641 87.707 81.6641 88.582C81.6641 90.0039 81.1172 91.1367 80.0234 91.9805C78.9375 92.8164 77.4609 93.2344 75.5938 93.2344C74.3594 93.2344 73.2227 93.0078 72.1836 92.5547C71.1523 92.0938 70.3477 91.4609 69.7695 90.6562C69.1992 89.8516 68.9141 88.9141 68.9141 87.8438H71.8789C71.8789 88.8125 72.1992 89.5625 72.8398 90.0938C73.4805 90.625 74.3984 90.8906 75.5938 90.8906C76.625 90.8906 77.3984 90.6836 77.9141 90.2695C78.4375 89.8477 78.6992 89.293 78.6992 88.6055ZM87.0195 93H84.1719V80.3203H87.0195V93ZM83.9961 77.0273C83.9961 76.5898 84.1328 76.2266 84.4062 75.9375C84.6875 75.6484 85.0859 75.5039 85.6016 75.5039C86.1172 75.5039 86.5156 75.6484 86.7969 75.9375C87.0781 76.2266 87.2188 76.5898 87.2188 77.0273C87.2188 77.457 87.0781 77.8164 86.7969 78.1055C86.5156 78.3867 86.1172 78.5273 85.6016 78.5273C85.0859 78.5273 84.6875 78.3867 84.4062 78.1055C84.1328 77.8164 83.9961 77.457 83.9961 77.0273ZM89.6328 86.5664C89.6328 84.5977 90.0938 83.0273 91.0156 81.8555C91.9453 80.6758 93.1758 80.0859 94.707 80.0859C96.1523 80.0859 97.2891 80.5898 98.1172 81.5977L98.2461 80.3203H100.812V92.6133C100.812 94.2773 100.293 95.5898 99.2539 96.5508C98.2227 97.5117 96.8281 97.9922 95.0703 97.9922C94.1406 97.9922 93.2305 97.7969 92.3398 97.4062C91.457 97.0234 90.7852 96.5195 90.3242 95.8945L91.6719 94.1836C92.5469 95.2227 93.625 95.7422 94.9062 95.7422C95.8516 95.7422 96.5977 95.4844 97.1445 94.9688C97.6914 94.4609 97.9648 93.7109 97.9648 92.7188V91.8633C97.1445 92.7773 96.0508 93.2344 94.6836 93.2344C93.1992 93.2344 91.9844 92.6445 91.0391 91.4648C90.1016 90.2852 89.6328 88.6523 89.6328 86.5664ZM92.4688 86.8125C92.4688 88.0859 92.7266 89.0898 93.2422 89.8242C93.7656 90.5508 94.4883 90.9141 95.4102 90.9141C96.5586 90.9141 97.4102 90.4219 97.9648 89.4375V83.8594C97.4258 82.8984 96.582 82.418 95.4336 82.418C94.4961 82.418 93.7656 82.7891 93.2422 83.5312C92.7266 84.2734 92.4688 85.3672 92.4688 86.8125ZM106.391 80.3203L106.473 81.7852C107.41 80.6523 108.641 80.0859 110.164 80.0859C112.805 80.0859 114.148 81.5977 114.195 84.6211V93H111.348V84.7852C111.348 83.9805 111.172 83.3867 110.82 83.0039C110.477 82.6133 109.91 82.418 109.121 82.418C107.973 82.418 107.117 82.9375 106.555 83.9766V93H103.707V80.3203H106.391ZM130.766 91.7578C129.93 92.7422 128.742 93.2344 127.203 93.2344C125.828 93.2344 124.785 92.832 124.074 92.0273C123.371 91.2227 123.02 90.0586 123.02 88.5352V80.3203H125.867V88.5C125.867 90.1094 126.535 90.9141 127.871 90.9141C129.254 90.9141 130.188 90.418 130.672 89.4258V80.3203H133.52V93H130.836L130.766 91.7578ZM147.523 86.7891C147.523 88.75 147.078 90.3164 146.188 91.4883C145.297 92.6523 144.102 93.2344 142.602 93.2344C141.211 93.2344 140.098 92.7773 139.262 91.8633V97.875H136.414V80.3203H139.039L139.156 81.6094C139.992 80.5938 141.129 80.0859 142.566 80.0859C144.113 80.0859 145.324 80.6641 146.199 81.8203C147.082 82.9688 147.523 84.5664 147.523 86.6133V86.7891ZM144.688 86.543C144.688 85.2773 144.434 84.2734 143.926 83.5312C143.426 82.7891 142.707 82.418 141.77 82.418C140.605 82.418 139.77 82.8984 139.262 83.8594V89.4844C139.777 90.4688 140.621 90.9609 141.793 90.9609C142.699 90.9609 143.406 90.5977 143.914 89.8711C144.43 89.1367 144.688 88.0273 144.688 86.543ZM156.922 93V82.4297H154.988V80.3203H156.922V79.1602C156.922 77.7539 157.312 76.668 158.094 75.9023C158.875 75.1367 159.969 74.7539 161.375 74.7539C161.875 74.7539 162.406 74.8242 162.969 74.9648L162.898 77.1914C162.586 77.1289 162.223 77.0977 161.809 77.0977C160.449 77.0977 159.77 77.7969 159.77 79.1953V80.3203H162.348V82.4297H159.77V93H156.922ZM163.895 86.543C163.895 85.3008 164.141 84.1836 164.633 83.1914C165.125 82.1914 165.816 81.4258 166.707 80.8945C167.598 80.3555 168.621 80.0859 169.777 80.0859C171.488 80.0859 172.875 80.6367 173.938 81.7383C175.008 82.8398 175.586 84.3008 175.672 86.1211L175.684 86.7891C175.684 88.0391 175.441 89.1562 174.957 90.1406C174.48 91.125 173.793 91.8867 172.895 92.4258C172.004 92.9648 170.973 93.2344 169.801 93.2344C168.012 93.2344 166.578 92.6406 165.5 91.4531C164.43 90.2578 163.895 88.668 163.895 86.6836V86.543ZM166.742 86.7891C166.742 88.0938 167.012 89.1172 167.551 89.8594C168.09 90.5938 168.84 90.9609 169.801 90.9609C170.762 90.9609 171.508 90.5859 172.039 89.8359C172.578 89.0859 172.848 87.9883 172.848 86.543C172.848 85.2617 172.57 84.2461 172.016 83.4961C171.469 82.7461 170.723 82.3711 169.777 82.3711C168.848 82.3711 168.109 82.7422 167.562 83.4844C167.016 84.2188 166.742 85.3203 166.742 86.7891ZM184.73 82.9219C184.355 82.8594 183.969 82.8281 183.57 82.8281C182.266 82.8281 181.387 83.3281 180.934 84.3281V93H178.086V80.3203H180.805L180.875 81.7383C181.562 80.6367 182.516 80.0859 183.734 80.0859C184.141 80.0859 184.477 80.1406 184.742 80.25L184.73 82.9219ZM189.207 80.3203L189.289 81.6445C190.18 80.6055 191.398 80.0859 192.945 80.0859C194.641 80.0859 195.801 80.7344 196.426 82.0312C197.348 80.7344 198.645 80.0859 200.316 80.0859C201.715 80.0859 202.754 80.4727 203.434 81.2461C204.121 82.0195 204.473 83.1602 204.488 84.668V93H201.641V84.75C201.641 83.9453 201.465 83.3555 201.113 82.9805C200.762 82.6055 200.18 82.418 199.367 82.418C198.719 82.418 198.188 82.5938 197.773 82.9453C197.367 83.2891 197.082 83.7422 196.918 84.3047L196.93 93H194.082V84.6562C194.043 83.1641 193.281 82.418 191.797 82.418C190.656 82.418 189.848 82.8828 189.371 83.8125V93H186.523V80.3203H189.207Z" fill="white"/>
<rect x="20" y="261" width="310" height="26" rx="13" fill="white" fill-opacity="0.67"/>
<rect x="20" y="511" width="310" height="26" rx="13" fill="white" fill-opacity="0.67"/>
<rect x="20" y="386" width="310" height="26" rx="13" fill="white" fill-opacity="0.67"/>
<path d="M35.3711 252H32.4062L24.8008 239.895V252H21.8359V234.938H24.8008L32.4297 247.09V234.938H35.3711V252ZM46.1758 252C46.0508 251.758 45.9414 251.363 45.8477 250.816C44.9414 251.762 43.832 252.234 42.5195 252.234C41.2461 252.234 40.207 251.871 39.4023 251.145C38.5977 250.418 38.1953 249.52 38.1953 248.449C38.1953 247.098 38.6953 246.062 39.6953 245.344C40.7031 244.617 42.1406 244.254 44.0078 244.254H45.7539V243.422C45.7539 242.766 45.5703 242.242 45.2031 241.852C44.8359 241.453 44.2773 241.254 43.5273 241.254C42.8789 241.254 42.3477 241.418 41.9336 241.746C41.5195 242.066 41.3125 242.477 41.3125 242.977H38.4648C38.4648 242.281 38.6953 241.633 39.1562 241.031C39.6172 240.422 40.2422 239.945 41.0312 239.602C41.8281 239.258 42.7148 239.086 43.6914 239.086C45.1758 239.086 46.3594 239.461 47.2422 240.211C48.125 240.953 48.5781 242 48.6016 243.352V249.07C48.6016 250.211 48.7617 251.121 49.082 251.801V252H46.1758ZM43.0469 249.949C43.6094 249.949 44.1367 249.812 44.6289 249.539C45.1289 249.266 45.5039 248.898 45.7539 248.438V246.047H44.2188C43.1641 246.047 42.3711 246.23 41.8398 246.598C41.3086 246.965 41.043 247.484 41.043 248.156C41.043 248.703 41.2227 249.141 41.582 249.469C41.9492 249.789 42.4375 249.949 43.0469 249.949ZM54.2617 239.32L54.3438 240.645C55.2344 239.605 56.4531 239.086 58 239.086C59.6953 239.086 60.8555 239.734 61.4805 241.031C62.4023 239.734 63.6992 239.086 65.3711 239.086C66.7695 239.086 67.8086 239.473 68.4883 240.246C69.1758 241.02 69.5273 242.16 69.543 243.668V252H66.6953V243.75C66.6953 242.945 66.5195 242.355 66.168 241.98C65.8164 241.605 65.2344 241.418 64.4219 241.418C63.7734 241.418 63.2422 241.594 62.8281 241.945C62.4219 242.289 62.1367 242.742 61.9727 243.305L61.9844 252H59.1367V243.656C59.0977 242.164 58.3359 241.418 56.8516 241.418C55.7109 241.418 54.9023 241.883 54.4258 242.812V252H51.5781V239.32H54.2617ZM78.0508 252.234C76.2461 252.234 74.7812 251.668 73.6562 250.535C72.5391 249.395 71.9805 247.879 71.9805 245.988V245.637C71.9805 244.371 72.2227 243.242 72.707 242.25C73.1992 241.25 73.8867 240.473 74.7695 239.918C75.6523 239.363 76.6367 239.086 77.7227 239.086C79.4492 239.086 80.7812 239.637 81.7188 240.738C82.6641 241.84 83.1367 243.398 83.1367 245.414V246.562H74.8516C74.9375 247.609 75.2852 248.438 75.8945 249.047C76.5117 249.656 77.2852 249.961 78.2148 249.961C79.5195 249.961 80.582 249.434 81.4023 248.379L82.9375 249.844C82.4297 250.602 81.75 251.191 80.8984 251.613C80.0547 252.027 79.1055 252.234 78.0508 252.234ZM77.7109 241.371C76.9297 241.371 76.2969 241.645 75.8125 242.191C75.3359 242.738 75.0312 243.5 74.8984 244.477H80.3242V244.266C80.2617 243.312 80.0078 242.594 79.5625 242.109C79.1172 241.617 78.5 241.371 77.7109 241.371Z" fill="white"/>
<path d="M25.0781 498.66V505H22.1133V487.938H28.6406C30.5469 487.938 32.0586 488.434 33.1758 489.426C34.3008 490.418 34.8633 491.73 34.8633 493.363C34.8633 495.035 34.3125 496.336 33.2109 497.266C32.1172 498.195 30.582 498.66 28.6055 498.66H25.0781ZM25.0781 496.281H28.6406C29.6953 496.281 30.5 496.035 31.0547 495.543C31.6094 495.043 31.8867 494.324 31.8867 493.387C31.8867 492.465 31.6055 491.73 31.043 491.184C30.4805 490.629 29.707 490.344 28.7227 490.328H25.0781V496.281ZM44.625 505C44.5 504.758 44.3906 504.363 44.2969 503.816C43.3906 504.762 42.2812 505.234 40.9688 505.234C39.6953 505.234 38.6562 504.871 37.8516 504.145C37.0469 503.418 36.6445 502.52 36.6445 501.449C36.6445 500.098 37.1445 499.062 38.1445 498.344C39.1523 497.617 40.5898 497.254 42.457 497.254H44.2031V496.422C44.2031 495.766 44.0195 495.242 43.6523 494.852C43.2852 494.453 42.7266 494.254 41.9766 494.254C41.3281 494.254 40.7969 494.418 40.3828 494.746C39.9688 495.066 39.7617 495.477 39.7617 495.977H36.9141C36.9141 495.281 37.1445 494.633 37.6055 494.031C38.0664 493.422 38.6914 492.945 39.4805 492.602C40.2773 492.258 41.1641 492.086 42.1406 492.086C43.625 492.086 44.8086 492.461 45.6914 493.211C46.5742 493.953 47.0273 495 47.0508 496.352V502.07C47.0508 503.211 47.2109 504.121 47.5312 504.801V505H44.625ZM41.4961 502.949C42.0586 502.949 42.5859 502.812 43.0781 502.539C43.5781 502.266 43.9531 501.898 44.2031 501.438V499.047H42.668C41.6133 499.047 40.8203 499.23 40.2891 499.598C39.7578 499.965 39.4922 500.484 39.4922 501.156C39.4922 501.703 39.6719 502.141 40.0312 502.469C40.3984 502.789 40.8867 502.949 41.4961 502.949ZM57.1406 501.555C57.1406 501.047 56.9297 500.66 56.5078 500.395C56.0938 500.129 55.4023 499.895 54.4336 499.691C53.4648 499.488 52.6562 499.23 52.0078 498.918C50.5859 498.23 49.875 497.234 49.875 495.93C49.875 494.836 50.3359 493.922 51.2578 493.188C52.1797 492.453 53.3516 492.086 54.7734 492.086C56.2891 492.086 57.5117 492.461 58.4414 493.211C59.3789 493.961 59.8477 494.934 59.8477 496.129H57C57 495.582 56.7969 495.129 56.3906 494.77C55.9844 494.402 55.4453 494.219 54.7734 494.219C54.1484 494.219 53.6367 494.363 53.2383 494.652C52.8477 494.941 52.6523 495.328 52.6523 495.812C52.6523 496.25 52.8359 496.59 53.2031 496.832C53.5703 497.074 54.3125 497.32 55.4297 497.57C56.5469 497.812 57.4219 498.105 58.0547 498.449C58.6953 498.785 59.168 499.191 59.4727 499.668C59.7852 500.145 59.9414 500.723 59.9414 501.402C59.9414 502.543 59.4688 503.469 58.5234 504.18C57.5781 504.883 56.3398 505.234 54.8086 505.234C53.7695 505.234 52.8438 505.047 52.0312 504.672C51.2188 504.297 50.5859 503.781 50.1328 503.125C49.6797 502.469 49.4531 501.762 49.4531 501.004H52.2188C52.2578 501.676 52.5117 502.195 52.9805 502.562C53.4492 502.922 54.0703 503.102 54.8438 503.102C55.5938 503.102 56.1641 502.961 56.5547 502.68C56.9453 502.391 57.1406 502.016 57.1406 501.555ZM69.5391 501.555C69.5391 501.047 69.3281 500.66 68.9062 500.395C68.4922 500.129 67.8008 499.895 66.832 499.691C65.8633 499.488 65.0547 499.23 64.4062 498.918C62.9844 498.23 62.2734 497.234 62.2734 495.93C62.2734 494.836 62.7344 493.922 63.6562 493.188C64.5781 492.453 65.75 492.086 67.1719 492.086C68.6875 492.086 69.9102 492.461 70.8398 493.211C71.7773 493.961 72.2461 494.934 72.2461 496.129H69.3984C69.3984 495.582 69.1953 495.129 68.7891 494.77C68.3828 494.402 67.8438 494.219 67.1719 494.219C66.5469 494.219 66.0352 494.363 65.6367 494.652C65.2461 494.941 65.0508 495.328 65.0508 495.812C65.0508 496.25 65.2344 496.59 65.6016 496.832C65.9688 497.074 66.7109 497.32 67.8281 497.57C68.9453 497.812 69.8203 498.105 70.4531 498.449C71.0938 498.785 71.5664 499.191 71.8711 499.668C72.1836 500.145 72.3398 500.723 72.3398 501.402C72.3398 502.543 71.8672 503.469 70.9219 504.18C69.9766 504.883 68.7383 505.234 67.207 505.234C66.168 505.234 65.2422 505.047 64.4297 504.672C63.6172 504.297 62.9844 503.781 62.5312 503.125C62.0781 502.469 61.8516 501.762 61.8516 501.004H64.6172C64.6562 501.676 64.9102 502.195 65.3789 502.562C65.8477 502.922 66.4688 503.102 67.2422 503.102C67.9922 503.102 68.5625 502.961 68.9531 502.68C69.3438 502.391 69.5391 502.016 69.5391 501.555ZM85.9688 501.074L87.9844 492.32H90.7617L87.3047 505H84.9609L82.2422 496.293L79.5703 505H77.2266L73.7578 492.32H76.5352L78.5859 500.98L81.1875 492.32H83.332L85.9688 501.074ZM92.1328 498.543C92.1328 497.301 92.3789 496.184 92.8711 495.191C93.3633 494.191 94.0547 493.426 94.9453 492.895C95.8359 492.355 96.8594 492.086 98.0156 492.086C99.7266 492.086 101.113 492.637 102.176 493.738C103.246 494.84 103.824 496.301 103.91 498.121L103.922 498.789C103.922 500.039 103.68 501.156 103.195 502.141C102.719 503.125 102.031 503.887 101.133 504.426C100.242 504.965 99.2109 505.234 98.0391 505.234C96.25 505.234 94.8164 504.641 93.7383 503.453C92.668 502.258 92.1328 500.668 92.1328 498.684V498.543ZM94.9805 498.789C94.9805 500.094 95.25 501.117 95.7891 501.859C96.3281 502.594 97.0781 502.961 98.0391 502.961C99 502.961 99.7461 502.586 100.277 501.836C100.816 501.086 101.086 499.988 101.086 498.543C101.086 497.262 100.809 496.246 100.254 495.496C99.707 494.746 98.9609 494.371 98.0156 494.371C97.0859 494.371 96.3477 494.742 95.8008 495.484C95.2539 496.219 94.9805 497.32 94.9805 498.789ZM112.969 494.922C112.594 494.859 112.207 494.828 111.809 494.828C110.504 494.828 109.625 495.328 109.172 496.328V505H106.324V492.32H109.043L109.113 493.738C109.801 492.637 110.754 492.086 111.973 492.086C112.379 492.086 112.715 492.141 112.98 492.25L112.969 494.922ZM114 498.566C114 496.613 114.453 495.047 115.359 493.867C116.266 492.68 117.48 492.086 119.004 492.086C120.348 492.086 121.434 492.555 122.262 493.492V487H125.109V505H122.531L122.391 503.688C121.539 504.719 120.402 505.234 118.98 505.234C117.496 505.234 116.293 504.637 115.371 503.441C114.457 502.246 114 500.621 114 498.566ZM116.848 498.812C116.848 500.102 117.094 501.109 117.586 501.836C118.086 502.555 118.793 502.914 119.707 502.914C120.871 502.914 121.723 502.395 122.262 501.355V495.941C121.738 494.926 120.895 494.418 119.73 494.418C118.809 494.418 118.098 494.785 117.598 495.52C117.098 496.246 116.848 497.344 116.848 498.812Z" fill="white"/>
<path d="M31.9102 372.383H24.9023V377.633H33.0938V380H21.9375V362.938H33.0117V365.328H24.9023V370.039H31.9102V372.383ZM40.7578 373.895H34.6055V371.598H40.7578V373.895ZM45.7852 367.32L45.8672 368.645C46.7578 367.605 47.9766 367.086 49.5234 367.086C51.2188 367.086 52.3789 367.734 53.0039 369.031C53.9258 367.734 55.2227 367.086 56.8945 367.086C58.293 367.086 59.332 367.473 60.0117 368.246C60.6992 369.02 61.0508 370.16 61.0664 371.668V380H58.2188V371.75C58.2188 370.945 58.043 370.355 57.6914 369.98C57.3398 369.605 56.7578 369.418 55.9453 369.418C55.2969 369.418 54.7656 369.594 54.3516 369.945C53.9453 370.289 53.6602 370.742 53.4961 371.305L53.5078 380H50.6602V371.656C50.6211 370.164 49.8594 369.418 48.375 369.418C47.2344 369.418 46.4258 369.883 45.9492 370.812V380H43.1016V367.32H45.7852ZM71.5664 380C71.4414 379.758 71.332 379.363 71.2383 378.816C70.332 379.762 69.2227 380.234 67.9102 380.234C66.6367 380.234 65.5977 379.871 64.793 379.145C63.9883 378.418 63.5859 377.52 63.5859 376.449C63.5859 375.098 64.0859 374.062 65.0859 373.344C66.0938 372.617 67.5312 372.254 69.3984 372.254H71.1445V371.422C71.1445 370.766 70.9609 370.242 70.5938 369.852C70.2266 369.453 69.668 369.254 68.918 369.254C68.2695 369.254 67.7383 369.418 67.3242 369.746C66.9102 370.066 66.7031 370.477 66.7031 370.977H63.8555C63.8555 370.281 64.0859 369.633 64.5469 369.031C65.0078 368.422 65.6328 367.945 66.4219 367.602C67.2188 367.258 68.1055 367.086 69.082 367.086C70.5664 367.086 71.75 367.461 72.6328 368.211C73.5156 368.953 73.9688 370 73.9922 371.352V377.07C73.9922 378.211 74.1523 379.121 74.4727 379.801V380H71.5664ZM68.4375 377.949C69 377.949 69.5273 377.812 70.0195 377.539C70.5195 377.266 70.8945 376.898 71.1445 376.438V374.047H69.6094C68.5547 374.047 67.7617 374.23 67.2305 374.598C66.6992 374.965 66.4336 375.484 66.4336 376.156C66.4336 376.703 66.6133 377.141 66.9727 377.469C67.3398 377.789 67.8281 377.949 68.4375 377.949ZM80.0039 380H77.1562V367.32H80.0039V380ZM76.9805 364.027C76.9805 363.59 77.1172 363.227 77.3906 362.938C77.6719 362.648 78.0703 362.504 78.5859 362.504C79.1016 362.504 79.5 362.648 79.7812 362.938C80.0625 363.227 80.2031 363.59 80.2031 364.027C80.2031 364.457 80.0625 364.816 79.7812 365.105C79.5 365.387 79.1016 365.527 78.5859 365.527C78.0703 365.527 77.6719 365.387 77.3906 365.105C77.1172 364.816 76.9805 364.457 76.9805 364.027ZM86.1445 380H83.2969V362H86.1445V380Z" fill="white"/>
<rect x="92" y="618" width="171" height="48" rx="15" fill="#7939FF"/>
<path d="M147.934 645.605C147.934 644.855 147.668 644.277 147.137 643.871C146.613 643.465 145.664 643.055 144.289 642.641C142.914 642.227 141.82 641.766 141.008 641.258C139.453 640.281 138.676 639.008 138.676 637.438C138.676 636.062 139.234 634.93 140.352 634.039C141.477 633.148 142.934 632.703 144.723 632.703C145.91 632.703 146.969 632.922 147.898 633.359C148.828 633.797 149.559 634.422 150.09 635.234C150.621 636.039 150.887 636.934 150.887 637.918H147.934C147.934 637.027 147.652 636.332 147.09 635.832C146.535 635.324 145.738 635.07 144.699 635.07C143.73 635.07 142.977 635.277 142.438 635.691C141.906 636.105 141.641 636.684 141.641 637.426C141.641 638.051 141.93 638.574 142.508 638.996C143.086 639.41 144.039 639.816 145.367 640.215C146.695 640.605 147.762 641.055 148.566 641.562C149.371 642.062 149.961 642.641 150.336 643.297C150.711 643.945 150.898 644.707 150.898 645.582C150.898 647.004 150.352 648.137 149.258 648.98C148.172 649.816 146.695 650.234 144.828 650.234C143.594 650.234 142.457 650.008 141.418 649.555C140.387 649.094 139.582 648.461 139.004 647.656C138.434 646.852 138.148 645.914 138.148 644.844H141.113C141.113 645.812 141.434 646.562 142.074 647.094C142.715 647.625 143.633 647.891 144.828 647.891C145.859 647.891 146.633 647.684 147.148 647.27C147.672 646.848 147.934 646.293 147.934 645.605ZM156.254 650H153.406V637.32H156.254V650ZM153.23 634.027C153.23 633.59 153.367 633.227 153.641 632.938C153.922 632.648 154.32 632.504 154.836 632.504C155.352 632.504 155.75 632.648 156.031 632.938C156.312 633.227 156.453 633.59 156.453 634.027C156.453 634.457 156.312 634.816 156.031 635.105C155.75 635.387 155.352 635.527 154.836 635.527C154.32 635.527 153.922 635.387 153.641 635.105C153.367 634.816 153.23 634.457 153.23 634.027ZM158.867 643.566C158.867 641.598 159.328 640.027 160.25 638.855C161.18 637.676 162.41 637.086 163.941 637.086C165.387 637.086 166.523 637.59 167.352 638.598L167.48 637.32H170.047V649.613C170.047 651.277 169.527 652.59 168.488 653.551C167.457 654.512 166.062 654.992 164.305 654.992C163.375 654.992 162.465 654.797 161.574 654.406C160.691 654.023 160.02 653.52 159.559 652.895L160.906 651.184C161.781 652.223 162.859 652.742 164.141 652.742C165.086 652.742 165.832 652.484 166.379 651.969C166.926 651.461 167.199 650.711 167.199 649.719V648.863C166.379 649.777 165.285 650.234 163.918 650.234C162.434 650.234 161.219 649.645 160.273 648.465C159.336 647.285 158.867 645.652 158.867 643.566ZM161.703 643.812C161.703 645.086 161.961 646.09 162.477 646.824C163 647.551 163.723 647.914 164.645 647.914C165.793 647.914 166.645 647.422 167.199 646.438V640.859C166.66 639.898 165.816 639.418 164.668 639.418C163.73 639.418 163 639.789 162.477 640.531C161.961 641.273 161.703 642.367 161.703 643.812ZM175.625 637.32L175.707 638.785C176.645 637.652 177.875 637.086 179.398 637.086C182.039 637.086 183.383 638.598 183.43 641.621V650H180.582V641.785C180.582 640.98 180.406 640.387 180.055 640.004C179.711 639.613 179.145 639.418 178.355 639.418C177.207 639.418 176.352 639.938 175.789 640.977V650H172.941V637.32H175.625ZM200 648.758C199.164 649.742 197.977 650.234 196.438 650.234C195.062 650.234 194.02 649.832 193.309 649.027C192.605 648.223 192.254 647.059 192.254 645.535V637.32H195.102V645.5C195.102 647.109 195.77 647.914 197.105 647.914C198.488 647.914 199.422 647.418 199.906 646.426V637.32H202.754V650H200.07L200 648.758ZM216.758 643.789C216.758 645.75 216.312 647.316 215.422 648.488C214.531 649.652 213.336 650.234 211.836 650.234C210.445 650.234 209.332 649.777 208.496 648.863V654.875H205.648V637.32H208.273L208.391 638.609C209.227 637.594 210.363 637.086 211.801 637.086C213.348 637.086 214.559 637.664 215.434 638.82C216.316 639.969 216.758 641.566 216.758 643.613V643.789ZM213.922 643.543C213.922 642.277 213.668 641.273 213.16 640.531C212.66 639.789 211.941 639.418 211.004 639.418C209.84 639.418 209.004 639.898 208.496 640.859V646.484C209.012 647.469 209.855 647.961 211.027 647.961C211.934 647.961 212.641 647.598 213.148 646.871C213.664 646.137 213.922 645.027 213.922 643.543Z" fill="white"/>
</g>
<defs>
<filter id="filter0_d" x="454" y="0" width="383" height="821" filterUnits="userSpaceOnUse" color-interpolation-filters="sRGB">
<feFlood flood-opacity="0" result="BackgroundImageFix"/>
<feColorMatrix in="SourceAlpha" type="matrix" values="0 0 0 0 0 0 0 0 0 0 0 0 0 0 0 0 0 0 127 0" result="hardAlpha"/>
<feOffset dx="4" dy="4"/>
<feGaussianBlur stdDeviation="2"/>
<feComposite in2="hardAlpha" operator="out"/>
<feColorMatrix type="matrix" values="0 0 0 0 1 0 0 0 0 1 0 0 0 0 1 0 0 0 0.25 0"/>
<feBlend mode="normal" in2="BackgroundImageFix" result="effect1_dropShadow"/>
<feBlend mode="normal" in="SourceGraphic" in2="effect1_dropShadow" result="shape"/>
</filter>
<filter id="filter1_d" x="0" y="0" width="383" height="820" filterUnits="userSpaceOnUse" color-interpolation-filters="sRGB">
<feFlood flood-opacity="0" result="BackgroundImageFix"/>
<feColorMatrix in="SourceAlpha" type="matrix" values="0 0 0 0 0 0 0 0 0 0 0 0 0 0 0 0 0 0 127 0" result="hardAlpha"/>
<feOffset dx="4" dy="4"/>
<feGaussianBlur stdDeviation="2"/>
<feComposite in2="hardAlpha" operator="out"/>
<feColorMatrix type="matrix" values="0 0 0 0 1 0 0 0 0 1 0 0 0 0 1 0 0 0 0.25 0"/>
<feBlend mode="normal" in2="BackgroundImageFix" result="effect1_dropShadow"/>
<feBlend mode="normal" in="SourceGraphic" in2="effect1_dropShadow" result="shape"/>
</filter>
<linearGradient id="paint0_linear" x1="641.5" y1="0" x2="641.5" y2="812" gradientUnits="userSpaceOnUse">
<stop stop-color="#044082"/>
<stop offset="1" stop-color="#073970" stop-opacity="0.72"/>
</linearGradient>
<linearGradient id="paint1_linear" x1="187.5" y1="0" x2="187.5" y2="812" gradientUnits="userSpaceOnUse">
<stop stop-color="#044082"/>
<stop offset="1" stop-color="#073970" stop-opacity="0.72"/>
</linearGradient>
<clipPath id="clip0">
<rect x="454" y="11" width="375" height="802" rx="30" fill="white"/>
</clipPath>
<clipPath id="clip1">
<rect width="375" height="812" rx="30" fill="white"/>
</clipPath>
</defs>
</svg>
